KarlaLatin-Light.ufo
<glyph name="percent" format="2">
  <advance width="685"/>
  <unicode hex="0025"/>
  <outline>
    <contour>
      <point x="179" y="616" type="line"/>
      <point x="118" y="616"/>
      <point x="61" y="567"/>
      <point x="61" y="481" type="curve" smooth="yes"/>
      <point x="61" y="394"/>
      <point x="118" y="346"/>
      <point x="179" y="346" type="curve" smooth="yes"/>
      <point x="241" y="346"/>
      <point x="298" y="394"/>
      <point x="298" y="481" type="curve" smooth="yes"/>
      <point x="298" y="567"/>
      <point x="241" y="616"/>
      <point x="179" y="616" type="curve" smooth="yes"/>
    </contour>
    <contour>
      <point x="179" y="586" type="line"/>
      <point x="227" y="586"/>
      <point x="261" y="549"/>
      <point x="261" y="481" type="curve" smooth="yes"/>
      <point x="261" y="412"/>
      <point x="227" y="377"/>
      <point x="179" y="377" type="curve" smooth="yes"/>
      <point x="129" y="377"/>
      <point x="96" y="412"/>
      <point x="96" y="481" type="curve" smooth="yes"/>
      <point x="96" y="549"/>
      <point x="129" y="586"/>
      <point x="179" y="586" type="curve" smooth="yes"/>
    </contour>
    <contour>
      <point x="117" y="0" type="line"/>
      <point x="158" y="0" type="line"/>
      <point x="564" y="607" type="line"/>
      <point x="522" y="607" type="line"/>
    </contour>
    <contour>
      <point x="501" y="261" type="line"/>
      <point x="440" y="261"/>
      <point x="383" y="213"/>
      <point x="383" y="126" type="curve" smooth="yes"/>
      <point x="383" y="39"/>
      <point x="440" y="-9"/>
      <point x="501" y="-9" type="curve" smooth="yes"/>
      <point x="563" y="-9"/>
      <point x="620" y="39"/>
      <point x="620" y="126" type="curve" smooth="yes"/>
      <point x="620" y="213"/>
      <point x="563" y="261"/>
      <point x="501" y="261" type="curve" smooth="yes"/>
    </contour>
    <contour>
      <point x="501" y="231" type="line"/>
      <point x="549" y="231"/>
      <point x="583" y="194"/>
      <point x="583" y="126" type="curve" smooth="yes"/>
      <point x="583" y="57"/>
      <point x="549" y="22"/>
      <point x="501" y="22" type="curve" smooth="yes"/>
      <point x="451" y="22"/>
      <point x="418" y="57"/>
      <point x="418" y="126" type="curve" smooth="yes"/>
      <point x="418" y="194"/>
      <point x="451" y="231"/>
      <point x="501" y="231" type="curve" smooth="yes"/>
    </contour>
  </outline>
</glyph>
<glyph name="ampersand" format="2">
  <advance width="863"/>
  <unicode hex="0026"/>
  <outline>
    <contour>
      <point x="322" y="295" type="line"/>
      <point x="190" y="281"/>
      <point x="125" y="241"/>
      <point x="125" y="162" type="curve" smooth="yes"/>
      <point x="125" y="86"/>
      <point x="187" y="22"/>
      <point x="310" y="22" type="curve" smooth="yes"/>
      <point x="486" y="22"/>
      <point x="598" y="186"/>
      <point x="654" y="372" type="curve"/>
      <point x="685" y="356" type="line"/>
      <point x="625" y="163"/>
      <point x="513" y="-9"/>
      <point x="310" y="-9" type="curve" smooth="yes"/>
      <point x="175" y="-9"/>
      <point x="85" y="67"/>
      <point x="85" y="162" type="curve" smooth="yes"/>
      <point x="85" y="264"/>
      <point x="164" y="309"/>
      <point x="322" y="323" type="curve"/>
    </contour>
    <contour>
      <point x="824" y="114" type="line"/>
      <point x="816" y="33"/>
      <point x="779" y="-9"/>
      <point x="710" y="-9" type="curve" smooth="yes"/>
      <point x="673" y="-9"/>
      <point x="644" y="4"/>
      <point x="605" y="38" type="curve" smooth="yes"/>
      <point x="265" y="329" type="line" smooth="yes"/>
      <point x="210" y="375"/>
      <point x="182" y="425"/>
      <point x="182" y="480" type="curve" smooth="yes"/>
      <point x="182" y="561"/>
      <point x="252" y="616"/>
      <point x="352" y="616" type="curve" smooth="yes"/>
      <point x="439" y="616"/>
      <point x="508" y="560"/>
      <point x="508" y="482" type="curve" smooth="yes"/>
      <point x="508" y="417"/>
      <point x="470" y="361"/>
      <point x="343" y="301" type="curve"/>
      <point x="320" y="324" type="line"/>
      <point x="454" y="388"/>
      <point x="468" y="436"/>
      <point x="468" y="487" type="curve" smooth="yes"/>
      <point x="468" y="544"/>
      <point x="422" y="586"/>
      <point x="352" y="586" type="curve" smooth="yes"/>
      <point x="265" y="586"/>
      <point x="222" y="533"/>
      <point x="222" y="475" type="curve" smooth="yes"/>
      <point x="222" y="433"/>
      <point x="239" y="395"/>
      <point x="288" y="354" type="curve" smooth="yes"/>
      <point x="633" y="57" type="line" smooth="yes"/>
      <point x="662" y="33"/>
      <point x="678" y="24"/>
      <point x="710" y="24" type="curve" smooth="yes"/>
      <point x="746" y="24"/>
      <point x="778" y="47"/>
      <point x="784" y="114" type="curve"/>
    </contour>
  </outline>
</glyph>
<glyph name="parenright" format="2">
  <advance width="310"/>
  <unicode hex="0029"/>
  <outline>
    <contour>
      <point x="51" y="700" type="line"/>
      <point x="166" y="589"/>
      <point x="237" y="440"/>
      <point x="237" y="295" type="curve" smooth="yes"/>
      <point x="237" y="151"/>
      <point x="166" y="1"/>
      <point x="51" y="-109" type="curve"/>
      <point x="24" y="-92" type="line"/>
      <point x="136" y="18"/>
      <point x="197" y="162"/>
      <point x="197" y="295" type="curve" smooth="yes"/>
      <point x="197" y="429"/>
      <point x="136" y="572"/>
      <point x="24" y="683" type="curve"/>
    </contour>
  </outline>
</glyph>
<glyph name="asterisk" format="2">
  <advance width="416"/>
  <unicode hex="002A"/>
  <outline>
    <contour>
      <point x="92" y="406" type="line"/>
      <point x="123" y="379" type="line"/>
      <point x="208" y="487" type="line"/>
      <point x="293" y="379" type="line"/>
      <point x="323" y="406" type="line"/>
      <point x="228" y="502" type="line"/>
      <point x="351" y="546" type="line"/>
      <point x="334" y="582" type="line"/>
      <point x="220" y="526" type="line"/>
      <point x="227" y="663" type="line"/>
      <point x="187" y="663" type="line"/>
      <point x="194" y="526" type="line"/>
      <point x="80" y="582" type="line"/>
      <point x="63" y="546" type="line"/>
      <point x="186" y="502" type="line"/>
    </contour>
  </outline>
</glyph>
<glyph name="plus" format="2">
  <advance width="510"/>
  <unicode hex="002B"/>
  <outline>
    <contour>
      <point x="237" y="491" type="line"/>
      <point x="237" y="261" type="line"/>
      <point x="18" y="261" type="line"/>
      <point x="18" y="231" type="line"/>
      <point x="237" y="231" type="line"/>
      <point x="237" y="0" type="line"/>
      <point x="273" y="0" type="line"/>
      <point x="273" y="231" type="line"/>
      <point x="492" y="231" type="line"/>
      <point x="492" y="261" type="line"/>
      <point x="273" y="261" type="line"/>
      <point x="273" y="491" type="line"/>
    </contour>
  </outline>
</glyph>
<glyph name="hyphen" format="2">
  <advance width="322"/>
  <unicode hex="002D"/>
  <outline>
    <contour>
      <point x="30" y="265" type="line"/>
      <point x="292" y="265" type="line"/>
      <point x="292" y="296" type="line"/>
      <point x="30" y="296" type="line"/>
    </contour>
  </outline>
</glyph>
<glyph name="slash" format="2">
  <advance width="391"/>
  <unicode hex="002F"/>
  <outline>
    <contour>
      <point x="61" y="-64" type="line"/>
      <point x="98" y="-64" type="line"/>
      <point x="343" y="717" type="line"/>
      <point x="305" y="717" type="line"/>
    </contour>
  </outline>
</glyph>
<glyph name="one" format="2">
  <advance width="304"/>
  <unicode hex="0031"/>
  <outline>
    <contour>
      <point x="158" y="607" type="line"/>
      <point x="131" y="580"/>
      <point x="94" y="564"/>
      <point x="55" y="558" type="curve"/>
      <point x="55" y="519" type="line"/>
      <point x="91" y="521"/>
      <point x="129" y="537"/>
      <point x="158" y="564" type="curve"/>
      <point x="158" y="0" type="line"/>
      <point x="194" y="0" type="line"/>
      <point x="194" y="607" type="line"/>
    </contour>
  </outline>
</glyph>
<glyph name="two" format="2">
  <advance width="553"/>
  <unicode hex="0032"/>
  <outline>
    <contour>
      <point x="106" y="77" type="line"/>
      <point x="106" y="148"/>
      <point x="147" y="190"/>
      <point x="224" y="221" type="curve" smooth="yes"/>
      <point x="343" y="271" type="line" smooth="yes"/>
      <point x="412" y="300"/>
      <point x="471" y="352"/>
      <point x="471" y="447" type="curve" smooth="yes"/>
      <point x="471" y="543"/>
      <point x="394" y="616"/>
      <point x="282" y="616" type="curve" smooth="yes"/>
      <point x="158" y="616"/>
      <point x="90" y="559"/>
      <point x="80" y="475" type="curve"/>
      <point x="120" y="475" type="line"/>
      <point x="130" y="546"/>
      <point x="190" y="582"/>
      <point x="282" y="582" type="curve" smooth="yes"/>
      <point x="374" y="582"/>
      <point x="431" y="530"/>
      <point x="431" y="452" type="curve" smooth="yes"/>
      <point x="431" y="380"/>
      <point x="392" y="334"/>
      <point x="322" y="305" type="curve" smooth="yes"/>
      <point x="208" y="258" type="line" smooth="yes"/>
      <point x="132" y="226"/>
      <point x="69" y="183"/>
      <point x="69" y="74" type="curve" smooth="yes"/>
      <point x="69" y="0" type="line"/>
      <point x="464" y="0" type="line"/>
      <point x="464" y="35" type="line"/>
      <point x="106" y="35" type="line"/>
    </contour>
  </outline>
</glyph>
<glyph name="three" format="2">
  <advance width="558"/>
  <unicode hex="0033"/>
  <outline>
    <contour>
      <point x="269" y="616" type="line"/>
      <point x="180" y="616"/>
      <point x="102" y="581"/>
      <point x="84" y="480" type="curve"/>
      <point x="120" y="480" type="line"/>
      <point x="142" y="559"/>
      <point x="199" y="582"/>
      <point x="269" y="582" type="curve" smooth="yes"/>
      <point x="362" y="582"/>
      <point x="418" y="525"/>
      <point x="418" y="454" type="curve" smooth="yes"/>
      <point x="418" y="375"/>
      <point x="345" y="328"/>
      <point x="227" y="328" type="curve" smooth="yes"/>
      <point x="204" y="328" type="line"/>
      <point x="204" y="298" type="line"/>
      <point x="259" y="298" type="line" smooth="yes"/>
      <point x="395" y="298"/>
      <point x="445" y="238"/>
      <point x="445" y="164" type="curve" smooth="yes"/>
      <point x="445" y="85"/>
      <point x="385" y="26"/>
      <point x="281" y="26" type="curve" smooth="yes"/>
      <point x="181" y="26"/>
      <point x="97" y="75"/>
      <point x="97" y="180" type="curve"/>
      <point x="61" y="180" type="line"/>
      <point x="61" y="56"/>
      <point x="165" y="-9"/>
      <point x="281" y="-9" type="curve" smooth="yes"/>
      <point x="411" y="-9"/>
      <point x="485" y="62"/>
      <point x="485" y="164" type="curve" smooth="yes"/>
      <point x="485" y="247"/>
      <point x="426" y="299"/>
      <point x="345" y="318" type="curve"/>
      <point x="417" y="343"/>
      <point x="458" y="389"/>
      <point x="458" y="454" type="curve" smooth="yes"/>
      <point x="458" y="547"/>
      <point x="378" y="616"/>
      <point x="269" y="616" type="curve" smooth="yes"/>
    </contour>
  </outline>
</glyph>
<glyph name="four" format="2">
  <advance width="521"/>
  <unicode hex="0034"/>
  <outline>
    <contour>
      <point x="357" y="618" type="line"/>
      <point x="30" y="192" type="line"/>
      <point x="30" y="162" type="line"/>
      <point x="350" y="162" type="line"/>
      <point x="350" y="0" type="line"/>
      <point x="386" y="0" type="line"/>
      <point x="386" y="162" type="line"/>
      <point x="491" y="162" type="line"/>
      <point x="491" y="192" type="line"/>
      <point x="386" y="192" type="line"/>
      <point x="386" y="618" type="line"/>
    </contour>
    <contour>
      <point x="350" y="547" type="line"/>
      <point x="350" y="192" type="line"/>
      <point x="75" y="192" type="line"/>
    </contour>
  </outline>
</glyph>
<glyph name="eight" format="2">
  <advance width="582"/>
  <unicode hex="0038"/>
  <outline>
    <contour>
      <point x="290" y="616" type="line"/>
      <point x="160" y="616"/>
      <point x="81" y="546"/>
      <point x="81" y="460" type="curve" smooth="yes"/>
      <point x="81" y="382"/>
      <point x="151" y="339"/>
      <point x="209" y="317" type="curve" smooth="yes"/>
      <point x="371" y="256" type="line" smooth="yes"/>
      <point x="437" y="232"/>
      <point x="481" y="198"/>
      <point x="481" y="142" type="curve" smooth="yes"/>
      <point x="481" y="72"/>
      <point x="403" y="26"/>
      <point x="290" y="26" type="curve" smooth="yes"/>
      <point x="180" y="26"/>
      <point x="101" y="73"/>
      <point x="101" y="162" type="curve" smooth="yes"/>
      <point x="101" y="234"/>
      <point x="174" y="303"/>
      <point x="289" y="303" type="curve"/>
      <point x="289" y="321" type="line"/>
      <point x="279" y="322"/>
      <point x="267" y="322"/>
      <point x="256" y="322" type="curve" smooth="yes"/>
      <point x="143" y="322"/>
      <point x="61" y="260"/>
      <point x="61" y="162" type="curve" smooth="yes"/>
      <point x="61" y="62"/>
      <point x="163" y="-9"/>
      <point x="290" y="-9" type="curve" smooth="yes"/>
      <point x="435" y="-9"/>
      <point x="521" y="51"/>
      <point x="521" y="142" type="curve" smooth="yes"/>
      <point x="521" y="217"/>
      <point x="473" y="259"/>
      <point x="384" y="292" type="curve" smooth="yes"/>
      <point x="228" y="350" type="line" smooth="yes"/>
      <point x="163" y="374"/>
      <point x="122" y="402"/>
      <point x="122" y="460" type="curve" smooth="yes"/>
      <point x="122" y="526"/>
      <point x="193" y="582"/>
      <point x="290" y="582" type="curve" smooth="yes"/>
      <point x="390" y="582"/>
      <point x="457" y="526"/>
      <point x="457" y="453" type="curve" smooth="yes"/>
      <point x="457" y="375"/>
      <point x="388" y="322"/>
      <point x="293" y="322" type="curve"/>
      <point x="293" y="305" type="line"/>
      <point x="304" y="303"/>
      <point x="315" y="303"/>
      <point x="326" y="303" type="curve" smooth="yes"/>
      <point x="441" y="303"/>
      <point x="497" y="373"/>
      <point x="497" y="453" type="curve" smooth="yes"/>
      <point x="497" y="546"/>
      <point x="414" y="616"/>
      <point x="290" y="616" type="curve" smooth="yes"/>
    </contour>
  </outline>
</glyph>
<glyph name="nine" format="2">
  <advance width="549"/>
  <unicode hex="0039"/>
  <outline>
    <contour>
      <point x="270" y="616" type="line"/>
      <point x="403" y="616"/>
      <point x="495" y="501"/>
      <point x="495" y="316" type="curve" smooth="yes"/>
      <point x="495" y="115"/>
      <point x="428" y="-9"/>
      <point x="270" y="-9" type="curve" smooth="yes"/>
      <point x="156" y="-9"/>
      <point x="80" y="73"/>
      <point x="80" y="180" type="curve"/>
      <point x="119" y="180" type="line"/>
      <point x="119" y="86"/>
      <point x="173" y="26"/>
      <point x="270" y="26" type="curve" smooth="yes"/>
      <point x="397" y="26"/>
      <point x="454" y="141"/>
      <point x="454" y="328" type="curve" smooth="yes"/>
      <point x="454" y="360"/>
      <point x="453" y="384"/>
      <point x="448" y="419" type="curve"/>
      <point x="440" y="313"/>
      <point x="373" y="249"/>
      <point x="270" y="249" type="curve" smooth="yes"/>
      <point x="166" y="249"/>
      <point x="79" y="327"/>
      <point x="79" y="436" type="curve" smooth="yes"/>
      <point x="79" y="546"/>
      <point x="156" y="616"/>
      <point x="270" y="616" type="curve" smooth="yes"/>
    </contour>
    <contour>
      <point x="270" y="582" type="line"/>
      <point x="181" y="582"/>
      <point x="119" y="527"/>
      <point x="119" y="436" type="curve" smooth="yes"/>
      <point x="119" y="345"/>
      <point x="181" y="289"/>
      <point x="270" y="289" type="curve" smooth="yes"/>
      <point x="358" y="289"/>
      <point x="422" y="356"/>
      <point x="422" y="436" type="curve" smooth="yes"/>
      <point x="422" y="527"/>
      <point x="358" y="582"/>
      <point x="270" y="582" type="curve" smooth="yes"/>
    </contour>
  </outline>
</glyph>
<glyph name="equal" format="2">
  <advance width="468"/>
  <unicode hex="003D"/>
  <outline>
    <contour>
      <point x="79" y="170" type="line"/>
      <point x="79" y="139" type="line"/>
      <point x="389" y="139" type="line"/>
      <point x="389" y="170" type="line"/>
    </contour>
    <contour>
      <point x="79" y="343" type="line"/>
      <point x="79" y="311" type="line"/>
      <point x="389" y="311" type="line"/>
      <point x="389" y="343" type="line"/>
    </contour>
  </outline>
</glyph>
<glyph name="greater" format="2">
  <advance width="403"/>
  <unicode hex="003E"/>
  <outline>
    <contour>
      <point x="72" y="524" type="line"/>
      <point x="367" y="303" type="line"/>
      <point x="367" y="273" type="line"/>
      <point x="72" y="52" type="line"/>
      <point x="49" y="83" type="line"/>
      <point x="341" y="295" type="line"/>
      <point x="341" y="281" type="line"/>
      <point x="49" y="495" type="line"/>
    </contour>
  </outline>
</glyph>
<glyph name="question" format="2">
  <advance width="479"/>
  <unicode hex="003F"/>
  <outline>
    <contour>
      <point x="236" y="616" type="line"/>
      <point x="350" y="616"/>
      <point x="419" y="547"/>
      <point x="419" y="468" type="curve" smooth="yes"/>
      <point x="419" y="400"/>
      <point x="386" y="361"/>
      <point x="307" y="316" type="curve" smooth="yes"/>
      <point x="238" y="276"/>
      <point x="215" y="255"/>
      <point x="215" y="176" type="curve" smooth="yes"/>
      <point x="215" y="125" type="line"/>
      <point x="179" y="125" type="line"/>
      <point x="179" y="176" type="line" smooth="yes"/>
      <point x="179" y="262"/>
      <point x="199" y="296"/>
      <point x="278" y="341" type="curve" smooth="yes"/>
      <point x="349" y="382"/>
      <point x="379" y="407"/>
      <point x="379" y="471" type="curve" smooth="yes"/>
      <point x="379" y="535"/>
      <point x="326" y="582"/>
      <point x="236" y="582" type="curve" smooth="yes"/>
      <point x="142" y="582"/>
      <point x="95" y="548"/>
      <point x="79" y="482" type="curve"/>
      <point x="36" y="482" type="line"/>
      <point x="47" y="560"/>
      <point x="114" y="616"/>
      <point x="236" y="616" type="curve" smooth="yes"/>
    </contour>
    <contour>
      <point x="196" y="57" type="line"/>
      <point x="215" y="57"/>
      <point x="231" y="41"/>
      <point x="231" y="23" type="curve" smooth="yes"/>
      <point x="231" y="6"/>
      <point x="215" y="-9"/>
      <point x="196" y="-9" type="curve" smooth="yes"/>
      <point x="177" y="-9"/>
      <point x="163" y="6"/>
      <point x="163" y="23" type="curve" smooth="yes"/>
      <point x="163" y="41"/>
      <point x="177" y="57"/>
      <point x="196" y="57" type="curve" smooth="yes"/>
    </contour>
  </outline>
</glyph>
<glyph name="A" format="2">
  <advance width="522"/>
  <unicode hex="0041"/>
  <anchor x="261" y="607" name="above"/>
  <outline>
    <contour>
      <point x="241" y="607" type="line"/>
      <point x="282" y="607" type="line"/>
      <point x="492" y="0" type="line"/>
      <point x="453" y="0" type="line"/>
      <point x="259" y="565" type="line"/>
      <point x="264" y="565" type="line"/>
      <point x="69" y="0" type="line"/>
      <point x="30" y="0" type="line"/>
    </contour>
    <contour>
      <point x="122" y="214" type="line"/>
      <point x="402" y="214" type="line"/>
      <point x="402" y="182" type="line"/>
      <point x="122" y="182" type="line"/>
    </contour>
  </outline>
</glyph>
<glyph name="C" format="2">
  <advance width="592"/>
  <unicode hex="0043"/>
  <outline>
    <contour>
      <point x="309" y="616" type="line"/>
      <point x="425" y="616"/>
      <point x="504" y="549"/>
      <point x="542" y="452" type="curve"/>
      <point x="501" y="442" type="line"/>
      <point x="470" y="530"/>
      <point x="394" y="583"/>
      <point x="309" y="583" type="curve" smooth="yes"/>
      <point x="197" y="583"/>
      <point x="95" y="487"/>
      <point x="95" y="310" type="curve" smooth="yes"/>
      <point x="95" y="154"/>
      <point x="160" y="24"/>
      <point x="309" y="24" type="curve" smooth="yes"/>
      <point x="424" y="24"/>
      <point x="501" y="89"/>
      <point x="501" y="194" type="curve"/>
      <point x="543" y="194" type="line"/>
      <point x="543" y="68"/>
      <point x="441" y="-9"/>
      <point x="309" y="-9" type="curve" smooth="yes"/>
      <point x="147" y="-9"/>
      <point x="55" y="131"/>
      <point x="55" y="310" type="curve" smooth="yes"/>
      <point x="55" y="507"/>
      <point x="169" y="616"/>
      <point x="309" y="616" type="curve" smooth="yes"/>
    </contour>
  </outline>
</glyph>
<glyph name="E" format="2">
  <advance width="537"/>
  <unicode hex="0045"/>
  <anchor x="287" y="607" name="above"/>
  <outline>
    <contour>
      <point x="109" y="0" type="line"/>
      <point x="464" y="0" type="line"/>
      <point x="464" y="32" type="line"/>
      <point x="146" y="32" type="line"/>
      <point x="146" y="292" type="line"/>
      <point x="446" y="292" type="line"/>
      <point x="446" y="323" type="line"/>
      <point x="146" y="323" type="line"/>
      <point x="146" y="576" type="line"/>
      <point x="464" y="576" type="line"/>
      <point x="464" y="607" type="line"/>
      <point x="109" y="607" type="line"/>
    </contour>
  </outline>
</glyph>
<glyph name="G" format="2">
  <advance width="610"/>
  <unicode hex="0047"/>
  <outline>
    <contour>
      <point x="525" y="0" type="line"/>
      <point x="525" y="288" type="line"/>
      <point x="316" y="288" type="line"/>
      <point x="316" y="259" type="line"/>
      <point x="488" y="250" type="line"/>
      <point x="488" y="154" type="line"/>
      <point x="497" y="0" type="line"/>
    </contour>
    <contour>
      <point x="55" y="293" type="line"/>
      <point x="55" y="102"/>
      <point x="174" y="-9"/>
      <point x="313" y="-9" type="curve" smooth="yes"/>
      <point x="456" y="-9"/>
      <point x="509" y="94"/>
      <point x="509" y="250" type="curve"/>
      <point x="488" y="250" type="line"/>
      <point x="488" y="91"/>
      <point x="411" y="26"/>
      <point x="313" y="26" type="curve" smooth="yes"/>
      <point x="175" y="26"/>
      <point x="94" y="140"/>
      <point x="94" y="293" type="curve" smooth="yes"/>
      <point x="94" y="473"/>
      <point x="208" y="582"/>
      <point x="337" y="582" type="curve" smooth="yes"/>
      <point x="395" y="582"/>
      <point x="454" y="560"/>
      <point x="510" y="505" type="curve"/>
      <point x="537" y="529" type="line"/>
      <point x="477" y="589"/>
      <point x="412" y="615"/>
      <point x="337" y="615" type="curve" smooth="yes"/>
      <point x="196" y="615"/>
      <point x="55" y="515"/>
      <point x="55" y="293" type="curve" smooth="yes"/>
    </contour>
  </outline>
</glyph>
<glyph name="J" format="2">
  <advance width="363"/>
  <unicode hex="004A"/>
  <outline>
    <contour>
      <point x="0" y="36" type="line"/>
      <point x="41" y="10"/>
      <point x="81" y="-9"/>
      <point x="131" y="-9" type="curve" smooth="yes"/>
      <point x="226" y="-9"/>
      <point x="278" y="45"/>
      <point x="278" y="162" type="curve" smooth="yes"/>
      <point x="278" y="607" type="line"/>
      <point x="242" y="607" type="line"/>
      <point x="242" y="162" type="line" smooth="yes"/>
      <point x="242" y="79"/>
      <point x="214" y="26"/>
      <point x="131" y="26" type="curve" smooth="yes"/>
      <point x="85" y="26"/>
      <point x="41" y="47"/>
      <point x="0" y="79" type="curve"/>
    </contour>
  </outline>
</glyph>
<glyph name="K" format="2">
  <advance width="560"/>
  <unicode hex="004B"/>
  <outline>
    <contour>
      <point x="456" y="607" type="line"/>
      <point x="135" y="276" type="line"/>
      <point x="135" y="219" type="line"/>
      <point x="508" y="607" type="line"/>
    </contour>
    <contour>
      <point x="239" y="345" type="line"/>
      <point x="210" y="320" type="line"/>
      <point x="474" y="0" type="line"/>
      <point x="524" y="0" type="line"/>
    </contour>
    <contour>
      <point x="109" y="607" type="line"/>
      <point x="109" y="0" type="line"/>
      <point x="148" y="0" type="line"/>
      <point x="148" y="607" type="line"/>
    </contour>
  </outline>
</glyph>
<glyph name="N" format="2">
  <advance width="650"/>
  <unicode hex="004E"/>
  <anchor x="324" y="607" name="above"/>
  <outline>
    <contour>
      <point x="109" y="607" type="line"/>
      <point x="109" y="0" type="line"/>
      <point x="146" y="0" type="line"/>
      <point x="146" y="578" type="line"/>
      <point x="141" y="578" type="line"/>
      <point x="488" y="0" type="line"/>
      <point x="541" y="0" type="line"/>
      <point x="541" y="607" type="line"/>
      <point x="504" y="607" type="line"/>
      <point x="504" y="34" type="line"/>
      <point x="509" y="34" type="line"/>
      <point x="165" y="607" type="line"/>
    </contour>
  </outline>
</glyph>
<glyph name="O" format="2">
  <advance width="607"/>
  <unicode hex="004F"/>
  <anchor x="304" y="607" name="above"/>
  <outline>
    <contour>
      <point x="304" y="616" type="line"/>
      <point x="165" y="616"/>
      <point x="55" y="513"/>
      <point x="55" y="301" type="curve" smooth="yes"/>
      <point x="55" y="90"/>
      <point x="165" y="-9"/>
      <point x="304" y="-9" type="curve" smooth="yes"/>
      <point x="443" y="-9"/>
      <point x="553" y="90"/>
      <point x="553" y="301" type="curve" smooth="yes"/>
      <point x="553" y="513"/>
      <point x="443" y="616"/>
      <point x="304" y="616" type="curve" smooth="yes"/>
    </contour>
    <contour>
      <point x="304" y="582" type="line"/>
      <point x="434" y="582"/>
      <point x="513" y="484"/>
      <point x="513" y="301" type="curve" smooth="yes"/>
      <point x="513" y="119"/>
      <point x="434" y="26"/>
      <point x="304" y="26" type="curve" smooth="yes"/>
      <point x="174" y="26"/>
      <point x="95" y="119"/>
      <point x="95" y="301" type="curve" smooth="yes"/>
      <point x="95" y="484"/>
      <point x="174" y="582"/>
      <point x="304" y="582" type="curve" smooth="yes"/>
    </contour>
  </outline>
</glyph>
<glyph name="P" format="2">
  <advance width="526"/>
  <unicode hex="0050"/>
  <outline>
    <contour>
      <point x="477" y="426" type="line"/>
      <point x="477" y="531"/>
      <point x="413" y="607"/>
      <point x="283" y="607" type="curve" smooth="yes"/>
      <point x="109" y="607" type="line"/>
      <point x="109" y="0" type="line"/>
      <point x="146" y="0" type="line"/>
      <point x="146" y="249" type="line"/>
      <point x="283" y="249" type="line" smooth="yes"/>
      <point x="413" y="249"/>
      <point x="477" y="322"/>
      <point x="477" y="426" type="curve" smooth="yes"/>
    </contour>
    <contour>
      <point x="146" y="281" type="line"/>
      <point x="146" y="576" type="line"/>
      <point x="283" y="576" type="line" smooth="yes"/>
      <point x="383" y="576"/>
      <point x="439" y="519"/>
      <point x="439" y="426" type="curve" smooth="yes"/>
      <point x="439" y="334"/>
      <point x="383" y="281"/>
      <point x="283" y="281" type="curve" smooth="yes"/>
    </contour>
  </outline>
</glyph>
<glyph name="R" format="2">
  <advance width="581"/>
  <unicode hex="0052"/>
  <outline>
    <contour>
      <point x="275" y="265" type="line"/>
      <point x="462" y="0" type="line"/>
      <point x="508" y="0" type="line"/>
      <point x="317" y="265" type="line"/>
    </contour>
    <contour>
      <point x="502" y="434" type="line"/>
      <point x="502" y="536"/>
      <point x="437" y="607"/>
      <point x="307" y="607" type="curve" smooth="yes"/>
      <point x="109" y="607" type="line"/>
      <point x="109" y="0" type="line"/>
      <point x="146" y="0" type="line"/>
      <point x="146" y="261" type="line"/>
      <point x="307" y="261" type="line" smooth="yes"/>
      <point x="437" y="261"/>
      <point x="502" y="333"/>
      <point x="502" y="434" type="curve" smooth="yes"/>
    </contour>
    <contour>
      <point x="146" y="292" type="line"/>
      <point x="146" y="576" type="line"/>
      <point x="307" y="576" type="line" smooth="yes"/>
      <point x="407" y="576"/>
      <point x="463" y="522"/>
      <point x="463" y="434" type="curve" smooth="yes"/>
      <point x="463" y="350"/>
      <point x="407" y="292"/>
      <point x="307" y="292" type="curve" smooth="yes"/>
    </contour>
  </outline>
</glyph>
<glyph name="U" format="2">
  <advance width="615"/>
  <unicode hex="0055"/>
  <anchor x="305" y="607" name="above"/>
  <outline>
    <contour>
      <point x="91" y="607" type="line"/>
      <point x="91" y="208" type="line" smooth="yes"/>
      <point x="91" y="57"/>
      <point x="180" y="-9"/>
      <point x="305" y="-9" type="curve" smooth="yes"/>
      <point x="429" y="-9"/>
      <point x="518" y="57"/>
      <point x="518" y="208" type="curve" smooth="yes"/>
      <point x="518" y="607" type="line"/>
      <point x="481" y="607" type="line"/>
      <point x="481" y="208" type="line" smooth="yes"/>
      <point x="481" y="80"/>
      <point x="411" y="26"/>
      <point x="305" y="26" type="curve" smooth="yes"/>
      <point x="198" y="26"/>
      <point x="128" y="80"/>
      <point x="128" y="208" type="curve" smooth="yes"/>
      <point x="128" y="607" type="line"/>
    </contour>
  </outline>
</glyph>
<glyph name="W" format="2">
  <advance width="840"/>
  <unicode hex="0057"/>
  <outline>
    <contour>
      <point x="18" y="607" type="line"/>
      <point x="203" y="0" type="line"/>
      <point x="242" y="0" type="line"/>
      <point x="417" y="470" type="line"/>
      <point x="397" y="470" type="line"/>
      <point x="560" y="0" type="line"/>
      <point x="599" y="0" type="line"/>
      <point x="821" y="607" type="line"/>
      <point x="781" y="607" type="line"/>
      <point x="571" y="33" type="line"/>
      <point x="588" y="33" type="line"/>
      <point x="419" y="519" type="line"/>
      <point x="394" y="519" type="line"/>
      <point x="214" y="33" type="line"/>
      <point x="231" y="33" type="line"/>
      <point x="60" y="607" type="line"/>
    </contour>
  </outline>
</glyph>
<glyph name="X" format="2">
  <advance width="598"/>
  <unicode hex="0058"/>
  <outline>
    <contour>
      <point x="532" y="0" type="line"/>
      <point x="488" y="0" type="line"/>
      <point x="296" y="272" type="line"/>
      <point x="109" y="0" type="line"/>
      <point x="64" y="0" type="line"/>
      <point x="277" y="300" type="line"/>
      <point x="61" y="607" type="line"/>
      <point x="103" y="607" type="line"/>
      <point x="301" y="327" type="line"/>
      <point x="493" y="607" type="line"/>
      <point x="537" y="607" type="line"/>
      <point x="321" y="300" type="line"/>
    </contour>
  </outline>
</glyph>
<glyph name="Y" format="2">
  <advance width="509"/>
  <unicode hex="0059"/>
  <outline>
    <contour>
      <point x="12" y="607" type="line"/>
      <point x="236" y="248" type="line"/>
      <point x="236" y="0" type="line"/>
      <point x="275" y="0" type="line"/>
      <point x="275" y="248" type="line"/>
      <point x="497" y="607" type="line"/>
      <point x="453" y="607" type="line"/>
      <point x="247" y="275" type="line"/>
      <point x="264" y="275" type="line"/>
      <point x="57" y="607" type="line"/>
    </contour>
  </outline>
</glyph>
<glyph name="Z" format="2">
  <advance width="553"/>
  <unicode hex="005A"/>
  <outline>
    <contour>
      <point x="73" y="38" type="line"/>
      <point x="467" y="582" type="line"/>
      <point x="467" y="569" type="line"/>
      <point x="73" y="573" type="line"/>
      <point x="73" y="607" type="line"/>
      <point x="504" y="607" type="line"/>
      <point x="504" y="569" type="line"/>
      <point x="111" y="27" type="line"/>
      <point x="101" y="38" type="line"/>
      <point x="504" y="34" type="line"/>
      <point x="504" y="0" type="line"/>
      <point x="73" y="0" type="line"/>
    </contour>
  </outline>
</glyph>
<glyph name="asciicircum" format="2">
  <advance width="363"/>
  <unicode hex="005E"/>
  <outline>
    <contour>
      <point x="23" y="273" type="line"/>
      <point x="174" y="569" type="line"/>
      <point x="200" y="569" type="line"/>
      <point x="351" y="273" type="line"/>
      <point x="309" y="273" type="line"/>
      <point x="181" y="533" type="line"/>
      <point x="193" y="533" type="line"/>
      <point x="66" y="273" type="line"/>
    </contour>
  </outline>
</glyph>
<glyph name="b" format="2">
  <advance width="570"/>
  <unicode hex="0062"/>
  <outline>
    <contour>
      <point x="146" y="677" type="line"/>
      <point x="109" y="677" type="line"/>
      <point x="109" y="0" type="line"/>
      <point x="141" y="0" type="line"/>
      <point x="146" y="103" type="line"/>
    </contour>
    <contour>
      <point x="299" y="480" type="line"/>
      <point x="197" y="480"/>
      <point x="123" y="402"/>
      <point x="123" y="278" type="curve"/>
      <point x="146" y="278" type="line"/>
      <point x="146" y="391"/>
      <point x="221" y="450"/>
      <point x="299" y="450" type="curve" smooth="yes"/>
      <point x="385" y="450"/>
      <point x="462" y="372"/>
      <point x="462" y="236" type="curve" smooth="yes"/>
      <point x="462" y="100"/>
      <point x="385" y="22"/>
      <point x="299" y="22" type="curve" smooth="yes"/>
      <point x="222" y="22"/>
      <point x="146" y="79"/>
      <point x="146" y="193" type="curve"/>
      <point x="123" y="193" type="line"/>
      <point x="123" y="69"/>
      <point x="197" y="-9"/>
      <point x="299" y="-9" type="curve" smooth="yes"/>
      <point x="407" y="-9"/>
      <point x="503" y="84"/>
      <point x="503" y="236" type="curve" smooth="yes"/>
      <point x="503" y="388"/>
      <point x="407" y="480"/>
      <point x="299" y="480" type="curve" smooth="yes"/>
    </contour>
  </outline>
</glyph>
<glyph name="c" format="2">
  <advance width="502"/>
  <unicode hex="0063"/>
  <outline>
    <contour>
      <point x="260" y="480" type="line"/>
      <point x="350" y="480"/>
      <point x="411" y="429"/>
      <point x="440" y="354" type="curve"/>
      <point x="400" y="344" type="line"/>
      <point x="377" y="412"/>
      <point x="326" y="450"/>
      <point x="260" y="450" type="curve" smooth="yes"/>
      <point x="174" y="450"/>
      <point x="96" y="372"/>
      <point x="96" y="236" type="curve" smooth="yes"/>
      <point x="96" y="115"/>
      <point x="162" y="22"/>
      <point x="260" y="22" type="curve" smooth="yes"/>
      <point x="349" y="22"/>
      <point x="400" y="67"/>
      <point x="400" y="148" type="curve"/>
      <point x="441" y="148" type="line"/>
      <point x="441" y="51"/>
      <point x="362" y="-9"/>
      <point x="260" y="-9" type="curve" smooth="yes"/>
      <point x="152" y="-9"/>
      <point x="55" y="84"/>
      <point x="55" y="236" type="curve" smooth="yes"/>
      <point x="55" y="388"/>
      <point x="152" y="480"/>
      <point x="260" y="480" type="curve" smooth="yes"/>
    </contour>
  </outline>
</glyph>
<glyph name="d" format="2">
  <advance width="570"/>
  <unicode hex="0064"/>
  <outline>
    <contour>
      <point x="424" y="677" type="line"/>
      <point x="460" y="677" type="line"/>
      <point x="460" y="0" type="line"/>
      <point x="429" y="0" type="line"/>
      <point x="424" y="103" type="line"/>
    </contour>
    <contour>
      <point x="271" y="480" type="line"/>
      <point x="373" y="480"/>
      <point x="447" y="402"/>
      <point x="447" y="278" type="curve"/>
      <point x="424" y="278" type="line"/>
      <point x="424" y="391"/>
      <point x="349" y="450"/>
      <point x="271" y="450" type="curve" smooth="yes"/>
      <point x="185" y="450"/>
      <point x="108" y="372"/>
      <point x="108" y="236" type="curve" smooth="yes"/>
      <point x="108" y="100"/>
      <point x="185" y="22"/>
      <point x="271" y="22" type="curve" smooth="yes"/>
      <point x="347" y="22"/>
      <point x="424" y="79"/>
      <point x="424" y="193" type="curve"/>
      <point x="447" y="193" type="line"/>
      <point x="447" y="69"/>
      <point x="373" y="-9"/>
      <point x="271" y="-9" type="curve" smooth="yes"/>
      <point x="163" y="-9"/>
      <point x="67" y="84"/>
      <point x="67" y="236" type="curve" smooth="yes"/>
      <point x="67" y="388"/>
      <point x="163" y="480"/>
      <point x="271" y="480" type="curve" smooth="yes"/>
    </contour>
  </outline>
</glyph>
<glyph name="i" format="2">
  <advance width="267"/>
  <unicode hex="0069"/>
  <outline>
    <contour>
      <point x="109" y="0" type="line"/>
      <point x="146" y="0" type="line"/>
      <point x="146" y="471" type="line"/>
      <point x="109" y="471" type="line"/>
    </contour>
    <contour>
      <point x="98" y="638" type="line"/>
      <point x="98" y="622"/>
      <point x="109" y="609"/>
      <point x="128" y="609" type="curve" smooth="yes"/>
      <point x="146" y="609"/>
      <point x="158" y="622"/>
      <point x="158" y="638" type="curve" smooth="yes"/>
      <point x="158" y="654"/>
      <point x="146" y="666"/>
      <point x="128" y="666" type="curve" smooth="yes"/>
      <point x="109" y="666"/>
      <point x="98" y="654"/>
      <point x="98" y="638" type="curve" smooth="yes"/>
    </contour>
  </outline>
</glyph>
<glyph name="l" format="2">
  <advance width="255"/>
  <unicode hex="006C"/>
  <outline>
    <contour>
      <point x="109" y="0" type="line"/>
      <point x="146" y="0" type="line"/>
      <point x="146" y="677" type="line"/>
      <point x="109" y="677" type="line"/>
    </contour>
  </outline>
</glyph>
<glyph name="m" format="2">
  <advance width="922"/>
  <unicode hex="006D"/>
  <outline>
    <contour>
      <point x="109" y="471" type="line"/>
      <point x="109" y="0" type="line"/>
      <point x="146" y="0" type="line"/>
      <point x="146" y="346" type="line"/>
      <point x="139" y="471" type="line"/>
    </contour>
    <contour>
      <point x="651" y="480" type="line"/>
      <point x="527" y="480"/>
      <point x="469" y="385"/>
      <point x="469" y="245" type="curve"/>
      <point x="492" y="245" type="line"/>
      <point x="492" y="364"/>
      <point x="542" y="450"/>
      <point x="645" y="450" type="curve" smooth="yes"/>
      <point x="739" y="450"/>
      <point x="795" y="389"/>
      <point x="795" y="278" type="curve" smooth="yes"/>
      <point x="795" y="0" type="line"/>
      <point x="831" y="0" type="line"/>
      <point x="831" y="278" type="line" smooth="yes"/>
      <point x="831" y="406"/>
      <point x="758" y="480"/>
      <point x="651" y="480" type="curve" smooth="yes"/>
    </contour>
    <contour>
      <point x="312" y="480" type="line"/>
      <point x="186" y="480"/>
      <point x="125" y="379"/>
      <point x="125" y="236" type="curve"/>
      <point x="146" y="236" type="line"/>
      <point x="146" y="360"/>
      <point x="204" y="450"/>
      <point x="306" y="450" type="curve" smooth="yes"/>
      <point x="400" y="450"/>
      <point x="456" y="389"/>
      <point x="456" y="278" type="curve" smooth="yes"/>
      <point x="456" y="0" type="line"/>
      <point x="492" y="0" type="line"/>
      <point x="492" y="278" type="line" smooth="yes"/>
      <point x="492" y="406"/>
      <point x="419" y="480"/>
      <point x="312" y="480" type="curve" smooth="yes"/>
    </contour>
  </outline>
</glyph>
<glyph name="o" format="2">
  <advance width="527"/>
  <unicode hex="006F"/>
  <anchor x="264" y="486" name="above"/>
  <outline>
    <contour>
      <point x="264" y="480" type="line"/>
      <point x="139" y="480"/>
      <point x="55" y="392"/>
      <point x="55" y="236" type="curve" smooth="yes"/>
      <point x="55" y="79"/>
      <point x="139" y="-9"/>
      <point x="264" y="-9" type="curve" smooth="yes"/>
      <point x="389" y="-9"/>
      <point x="473" y="79"/>
      <point x="473" y="236" type="curve" smooth="yes"/>
      <point x="473" y="392"/>
      <point x="389" y="480"/>
      <point x="264" y="480" type="curve" smooth="yes"/>
    </contour>
    <contour>
      <point x="264" y="450" type="line"/>
      <point x="380" y="450"/>
      <point x="433" y="361"/>
      <point x="433" y="236" type="curve" smooth="yes"/>
      <point x="433" y="111"/>
      <point x="380" y="22"/>
      <point x="264" y="22" type="curve" smooth="yes"/>
      <point x="147" y="22"/>
      <point x="95" y="111"/>
      <point x="95" y="236" type="curve" smooth="yes"/>
      <point x="95" y="361"/>
      <point x="147" y="450"/>
      <point x="264" y="450" type="curve" smooth="yes"/>
    </contour>
  </outline>
</glyph>
<glyph name="u" format="2">
  <advance width="583"/>
  <unicode hex="0075"/>
  <anchor x="288" y="486" name="above"/>
  <outline>
    <contour>
      <point x="437" y="471" type="line"/>
      <point x="437" y="0" type="line"/>
      <point x="474" y="0" type="line"/>
      <point x="474" y="471" type="line"/>
    </contour>
    <contour>
      <point x="91" y="471" type="line"/>
      <point x="91" y="173" type="line" smooth="yes"/>
      <point x="91" y="57"/>
      <point x="154" y="-9"/>
      <point x="266" y="-9" type="curve" smooth="yes"/>
      <point x="389" y="-9"/>
      <point x="462" y="94"/>
      <point x="462" y="237" type="curve"/>
      <point x="437" y="237" type="line"/>
      <point x="437" y="125"/>
      <point x="377" y="23"/>
      <point x="266" y="23" type="curve" smooth="yes"/>
      <point x="175" y="23"/>
      <point x="128" y="75"/>
      <point x="128" y="173" type="curve" smooth="yes"/>
      <point x="128" y="471" type="line"/>
    </contour>
  </outline>
</glyph>
<glyph name="w" format="2">
  <advance width="690"/>
  <unicode hex="0077"/>
  <outline>
    <contour>
      <point x="24" y="471" type="line"/>
      <point x="180" y="0" type="line"/>
      <point x="214" y="0" type="line"/>
      <point x="346" y="385" type="line"/>
      <point x="341" y="385" type="line"/>
      <point x="475" y="0" type="line"/>
      <point x="509" y="0" type="line"/>
      <point x="662" y="471" type="line"/>
      <point x="625" y="471" type="line"/>
      <point x="487" y="40" type="line"/>
      <point x="493" y="40" type="line"/>
      <point x="355" y="450" type="line"/>
      <point x="333" y="450" type="line"/>
      <point x="194" y="41" type="line"/>
      <point x="202" y="41" type="line"/>
      <point x="63" y="471" type="line"/>
    </contour>
  </outline>
</glyph>
<glyph name="y" format="2">
  <advance width="426"/>
  <unicode hex="0079"/>
  <outline>
    <contour>
      <point x="26" y="471" type="line"/>
      <point x="222" y="0" type="line"/>
      <point x="209" y="-50" type="line" smooth="yes"/>
      <point x="190" y="-120"/>
      <point x="162" y="-208"/>
      <point x="89" y="-208" type="curve" smooth="yes"/>
      <point x="51" y="-208"/>
      <point x="22" y="-196"/>
      <point x="-12" y="-164" type="curve"/>
      <point x="-12" y="-203" type="line"/>
      <point x="22" y="-227"/>
      <point x="52" y="-241"/>
      <point x="89" y="-241" type="curve" smooth="yes"/>
      <point x="165" y="-241"/>
      <point x="207" y="-181"/>
      <point x="230" y="-104" type="curve" smooth="yes"/>
      <point x="402" y="471" type="line"/>
      <point x="363" y="471" type="line"/>
      <point x="233" y="33" type="line"/>
      <point x="248" y="33" type="line"/>
      <point x="64" y="471" type="line"/>
    </contour>
  </outline>
</glyph>
<glyph name="braceleft" format="2">
  <advance width="304"/>
  <unicode hex="007B"/>
  <outline>
    <contour>
      <point x="292" y="-120" type="line"/>
      <point x="165" y="-120"/>
      <point x="126" y="-27"/>
      <point x="126" y="97" type="curve" smooth="yes"/>
      <point x="126" y="188" type="line" smooth="yes"/>
      <point x="126" y="249"/>
      <point x="113" y="273"/>
      <point x="87" y="273" type="curve" smooth="yes"/>
      <point x="79" y="273" type="line"/>
      <point x="79" y="305" type="line"/>
      <point x="87" y="305" type="line" smooth="yes"/>
      <point x="113" y="305"/>
      <point x="126" y="329"/>
      <point x="126" y="390" type="curve" smooth="yes"/>
      <point x="126" y="481" type="line" smooth="yes"/>
      <point x="126" y="605"/>
      <point x="165" y="699"/>
      <point x="292" y="699" type="curve"/>
      <point x="292" y="668" type="line"/>
      <point x="194" y="668"/>
      <point x="163" y="598"/>
      <point x="163" y="481" type="curve" smooth="yes"/>
      <point x="163" y="391" type="line" smooth="yes"/>
      <point x="163" y="332"/>
      <point x="149" y="303"/>
      <point x="125" y="290" type="curve"/>
      <point x="125" y="288" type="line"/>
      <point x="149" y="276"/>
      <point x="163" y="247"/>
      <point x="163" y="187" type="curve" smooth="yes"/>
      <point x="163" y="97" type="line" smooth="yes"/>
      <point x="163" y="-19"/>
      <point x="194" y="-90"/>
      <point x="292" y="-90" type="curve"/>
    </contour>
  </outline>
</glyph>
<glyph name="asciitilde" format="2">
  <advance width="458"/>
  <unicode hex="007E"/>
  <anchor x="256" y="190" name="_above"/>
  <outline>
    <contour>
      <point x="72" y="242" type="curve"/>
      <point x="49" y="254" type="line"/>
      <point x="69" y="311"/>
      <point x="102" y="335"/>
      <point x="134" y="335" type="curve" smooth="yes"/>
      <point x="153" y="335"/>
      <point x="173" y="329"/>
      <point x="227" y="307" type="curve" smooth="yes"/>
      <point x="288" y="283"/>
      <point x="303" y="279"/>
      <point x="321" y="279" type="curve" smooth="yes"/>
      <point x="346" y="279"/>
      <point x="371" y="299"/>
      <point x="388" y="338" type="curve"/>
      <point x="409" y="324" type="line"/>
      <point x="388" y="265"/>
      <point x="357" y="242"/>
      <point x="321" y="242" type="curve" smooth="yes"/>
      <point x="303" y="242"/>
      <point x="276" y="250"/>
      <point x="225" y="270" type="curve" smooth="yes"/>
      <point x="165" y="293"/>
      <point x="149" y="300"/>
      <point x="131" y="300" type="curve" smooth="yes"/>
      <point x="111" y="300"/>
      <point x="90" y="286"/>
    </contour>
  </outline>
</glyph>
<glyph name="cent" format="2">
  <advance width="496"/>
  <unicode hex="00A2"/>
  <guideline x="858" y="-81" angle="0"/>
  <outline>
    <contour>
      <point x="244" y="574" type="line"/>
      <point x="281" y="574" type="line"/>
      <point x="281" y="477" type="line"/>
      <point x="244" y="477" type="line"/>
    </contour>
    <contour>
      <point x="244" y="0" type="line"/>
      <point x="281" y="0" type="line"/>
      <point x="281" y="-81" type="line"/>
      <point x="244" y="-81" type="line"/>
    </contour>
    <component base="c"/>
  </outline>
</glyph>
<glyph name="plusminus" format="2">
  <advance width="468"/>
  <unicode hex="00B1"/>
  <outline>
    <contour>
      <point x="216" y="500" type="line"/>
      <point x="216" y="321" type="line"/>
      <point x="46" y="321" type="line"/>
      <point x="46" y="291" type="line"/>
      <point x="216" y="291" type="line"/>
      <point x="216" y="111" type="line"/>
      <point x="252" y="111" type="line"/>
      <point x="252" y="291" type="line"/>
      <point x="422" y="291" type="line"/>
      <point x="422" y="321" type="line"/>
      <point x="252" y="321" type="line"/>
      <point x="252" y="500" type="line"/>
    </contour>
    <contour>
      <point x="69" y="31" type="line"/>
      <point x="69" y="0" type="line"/>
      <point x="399" y="0" type="line"/>
      <point x="399" y="31" type="line"/>
    </contour>
  </outline>
</glyph>
<glyph name="acute" format="2">
  <advance width="270"/>
  <unicode hex="00B4"/>
  <anchor x="135" y="607" name="_above"/>
  <outline>
    <contour>
      <point x="245" y="782" type="line"/>
      <point x="38" y="659" type="line"/>
      <point x="22" y="682" type="line"/>
      <point x="224" y="816" type="line"/>
    </contour>
  </outline>
</glyph>
<glyph name="divide" format="2">
  <advance width="510"/>
  <unicode hex="00F7"/>
  <outline>
    <contour>
      <point x="100" y="230" type="line"/>
      <point x="410" y="230" type="line"/>
      <point x="410" y="262" type="line"/>
      <point x="100" y="262" type="line"/>
    </contour>
    <contour>
      <point x="254" y="102" type="curve" smooth="yes"/>
      <point x="274" y="102"/>
      <point x="289" y="117"/>
      <point x="289" y="134" type="curve" smooth="yes"/>
      <point x="289" y="152"/>
      <point x="274" y="168"/>
      <point x="254" y="168" type="curve" smooth="yes"/>
      <point x="236" y="168"/>
      <point x="221" y="152"/>
      <point x="221" y="134" type="curve" smooth="yes"/>
      <point x="221" y="117"/>
      <point x="236" y="102"/>
    </contour>
    <contour>
      <point x="254" y="323" type="curve" smooth="yes"/>
      <point x="274" y="323"/>
      <point x="289" y="338"/>
      <point x="289" y="355" type="curve" smooth="yes"/>
      <point x="289" y="373"/>
      <point x="274" y="389"/>
      <point x="254" y="389" type="curve" smooth="yes"/>
      <point x="236" y="389"/>
      <point x="221" y="373"/>
      <point x="221" y="355" type="curve" smooth="yes"/>
      <point x="221" y="338"/>
      <point x="236" y="323"/>
    </contour>
  </outline>
</glyph>
<glyph name="tilde" format="2">
  <advance width="335"/>
  <unicode hex="02DC"/>
  <anchor x="164" y="607" name="_above"/>
  <outline>
    <contour>
      <point x="40" y="705" type="line"/>
      <point x="22" y="716" type="line"/>
      <point x="39" y="770"/>
      <point x="64" y="793"/>
      <point x="94" y="793" type="curve" smooth="yes"/>
      <point x="108" y="793"/>
      <point x="118" y="791"/>
      <point x="166" y="767" type="curve" smooth="yes"/>
      <point x="214" y="742"/>
      <point x="222" y="739"/>
      <point x="236" y="739" type="curve" smooth="yes"/>
      <point x="255" y="739"/>
      <point x="275" y="755"/>
      <point x="289" y="793" type="curve"/>
      <point x="307" y="782" type="line"/>
      <point x="290" y="728"/>
      <point x="265" y="705"/>
      <point x="236" y="705" type="curve" smooth="yes"/>
      <point x="220" y="705"/>
      <point x="204" y="710"/>
      <point x="156" y="735" type="curve" smooth="yes"/>
      <point x="115" y="756"/>
      <point x="107" y="759"/>
      <point x="94" y="759" type="curve" smooth="yes"/>
      <point x="74" y="759"/>
      <point x="55" y="744"/>
      <point x="40" y="705" type="curve"/>
    </contour>
  </outline>
</glyph>
<glyph name="endash" format="2">
  <advance width="419"/>
  <unicode hex="2013"/>
  <outline>
    <contour>
      <point x="55" y="265" type="line"/>
      <point x="364" y="265" type="line"/>
      <point x="364" y="296" type="line"/>
      <point x="55" y="296" type="line"/>
    </contour>
  </outline>
</glyph>
<glyph name="quoteleft" format="2">
  <advance width="152"/>
  <unicode hex="2018"/>
  <outline>
    <contour>
      <point x="78" y="460" type="line"/>
      <point x="98" y="460"/>
      <point x="109" y="475"/>
      <point x="109" y="492" type="curve" smooth="yes"/>
      <point x="109" y="512"/>
      <point x="94" y="522"/>
      <point x="72" y="522" type="curve"/>
      <point x="77" y="549"/>
      <point x="96" y="569"/>
      <point x="128" y="586" type="curve"/>
      <point x="98" y="599" type="line"/>
      <point x="53" y="576"/>
      <point x="36" y="539"/>
      <point x="36" y="509" type="curve" smooth="yes"/>
      <point x="36" y="480"/>
      <point x="55" y="460"/>
      <point x="78" y="460" type="curve" smooth="yes"/>
    </contour>
  </outline>
</glyph>
<glyph name="minus" format="2">
  <advance width="468"/>
  <unicode hex="2212"/>
  <outline>
    <contour>
      <point x="79" y="296" type="line"/>
      <point x="79" y="265" type="line"/>
      <point x="389" y="265" type="line"/>
      <point x="389" y="296" type="line"/>
    </contour>
  </outline>
</glyph>
<glyph name="lessequal" format="2">
  <advance width="468"/>
  <unicode hex="2264"/>
  <outline>
    <contour>
      <point x="374" y="119" type="line"/>
      <point x="391" y="148" type="line"/>
      <point x="115" y="265" type="line"/>
      <point x="115" y="251" type="line"/>
      <point x="391" y="370" type="line"/>
      <point x="374" y="397" type="line"/>
      <point x="89" y="273" type="line"/>
      <point x="89" y="243" type="line"/>
    </contour>
    <contour>
      <point x="77" y="0" type="line"/>
      <point x="387" y="0" type="line"/>
      <point x="387" y="31" type="line"/>
      <point x="77" y="31" type="line"/>
    </contour>
  </outline>
</glyph>
<glyph name="asciicircum.tf" format="2">
  <advance width="600"/>
  <outline>
    <contour>
      <point x="136" y="273" type="line"/>
      <point x="287" y="569" type="line"/>
      <point x="313" y="569" type="line"/>
      <point x="464" y="273" type="line"/>
      <point x="422" y="273" type="line"/>
      <point x="294" y="533" type="line"/>
      <point x="306" y="533" type="line"/>
      <point x="179" y="273" type="line"/>
    </contour>
  </outline>
</glyph>
<glyph name="asciitilde.tf" format="2">
  <advance width="600"/>
  <outline>
    <contour>
      <point x="143" y="242" type="curve"/>
      <point x="120" y="254" type="line"/>
      <point x="140" y="311"/>
      <point x="173" y="335"/>
      <point x="205" y="335" type="curve" smooth="yes"/>
      <point x="224" y="335"/>
      <point x="244" y="329"/>
      <point x="298" y="307" type="curve" smooth="yes"/>
      <point x="359" y="282"/>
      <point x="374" y="279"/>
      <point x="392" y="279" type="curve" smooth="yes"/>
      <point x="417" y="279"/>
      <point x="442" y="299"/>
      <point x="459" y="338" type="curve"/>
      <point x="480" y="324" type="line"/>
      <point x="459" y="265"/>
      <point x="428" y="242"/>
      <point x="392" y="242" type="curve" smooth="yes"/>
      <point x="374" y="242"/>
      <point x="347" y="250"/>
      <point x="296" y="270" type="curve" smooth="yes"/>
      <point x="236" y="293"/>
      <point x="220" y="300"/>
      <point x="202" y="300" type="curve" smooth="yes"/>
      <point x="182" y="300"/>
      <point x="161" y="286"/>
    </contour>
  </outline>
</glyph>
<glyph name="currency.tf" format="2">
  <advance width="600"/>
  <outline>
    <contour>
      <point x="300" y="119" type="curve" smooth="yes"/>
      <point x="406" y="119"/>
      <point x="493" y="206"/>
      <point x="493" y="313" type="curve" smooth="yes"/>
      <point x="493" y="419"/>
      <point x="406" y="506"/>
      <point x="300" y="506" type="curve" smooth="yes"/>
      <point x="193" y="506"/>
      <point x="106" y="419"/>
      <point x="106" y="313" type="curve" smooth="yes"/>
      <point x="106" y="206"/>
      <point x="193" y="119"/>
    </contour>
    <contour>
      <point x="300" y="159" type="curve" smooth="yes"/>
      <point x="215" y="159"/>
      <point x="146" y="227"/>
      <point x="146" y="313" type="curve" smooth="yes"/>
      <point x="146" y="398"/>
      <point x="215" y="466"/>
      <point x="300" y="466" type="curve" smooth="yes"/>
      <point x="384" y="466"/>
      <point x="453" y="398"/>
      <point x="453" y="313" type="curve" smooth="yes"/>
      <point x="453" y="227"/>
      <point x="384" y="159"/>
    </contour>
    <contour>
      <point x="437" y="420" type="line"/>
      <point x="516" y="499" type="line"/>
      <point x="486" y="529" type="line"/>
      <point x="407" y="450" type="line"/>
    </contour>
    <contour>
      <point x="163" y="420" type="line"/>
      <point x="193" y="450" type="line"/>
      <point x="113" y="529" type="line"/>
      <point x="83" y="499" type="line"/>
    </contour>
    <contour>
      <point x="437" y="206" type="line"/>
      <point x="407" y="176" type="line"/>
      <point x="487" y="96" type="line"/>
      <point x="516" y="127" type="line"/>
    </contour>
    <contour>
      <point x="163" y="206" type="line"/>
      <point x="83" y="126" type="line"/>
      <point x="113" y="96" type="line"/>
      <point x="193" y="176" type="line"/>
    </contour>
  </outline>
</glyph>
<glyph name="eight.tf" format="2">
  <advance width="600"/>
  <outline>
    <contour>
      <point x="299" y="616" type="line"/>
      <point x="169" y="616"/>
      <point x="90" y="546"/>
      <point x="90" y="460" type="curve" smooth="yes"/>
      <point x="90" y="382"/>
      <point x="160" y="339"/>
      <point x="218" y="317" type="curve" smooth="yes"/>
      <point x="380" y="256" type="line" smooth="yes"/>
      <point x="446" y="231"/>
      <point x="490" y="198"/>
      <point x="490" y="142" type="curve" smooth="yes"/>
      <point x="490" y="72"/>
      <point x="412" y="26"/>
      <point x="299" y="26" type="curve" smooth="yes"/>
      <point x="189" y="26"/>
      <point x="110" y="73"/>
      <point x="110" y="162" type="curve" smooth="yes"/>
      <point x="110" y="234"/>
      <point x="183" y="303"/>
      <point x="298" y="303" type="curve"/>
      <point x="298" y="321" type="line"/>
      <point x="288" y="322"/>
      <point x="276" y="322"/>
      <point x="265" y="322" type="curve" smooth="yes"/>
      <point x="152" y="322"/>
      <point x="70" y="260"/>
      <point x="70" y="162" type="curve" smooth="yes"/>
      <point x="70" y="62"/>
      <point x="172" y="-9"/>
      <point x="299" y="-9" type="curve" smooth="yes"/>
      <point x="444" y="-9"/>
      <point x="530" y="51"/>
      <point x="530" y="142" type="curve" smooth="yes"/>
      <point x="530" y="217"/>
      <point x="482" y="259"/>
      <point x="393" y="292" type="curve" smooth="yes"/>
      <point x="237" y="350" type="line" smooth="yes"/>
      <point x="172" y="374"/>
      <point x="131" y="402"/>
      <point x="131" y="460" type="curve" smooth="yes"/>
      <point x="131" y="526"/>
      <point x="202" y="582"/>
      <point x="299" y="582" type="curve" smooth="yes"/>
      <point x="399" y="582"/>
      <point x="466" y="526"/>
      <point x="466" y="453" type="curve" smooth="yes"/>
      <point x="466" y="375"/>
      <point x="397" y="322"/>
      <point x="302" y="322" type="curve"/>
      <point x="302" y="305" type="line"/>
      <point x="313" y="303"/>
      <point x="324" y="303"/>
      <point x="335" y="303" type="curve" smooth="yes"/>
      <point x="450" y="303"/>
      <point x="506" y="373"/>
      <point x="506" y="453" type="curve" smooth="yes"/>
      <point x="506" y="546"/>
      <point x="423" y="616"/>
      <point x="299" y="616" type="curve" smooth="yes"/>
    </contour>
  </outline>
</glyph>
<glyph name="exclam.tf" format="2">
  <advance width="600"/>
  <outline>
    <contour>
      <point x="288" y="131" type="line"/>
      <point x="312" y="131" type="line"/>
      <point x="318" y="589" type="line"/>
      <point x="282" y="589" type="line"/>
    </contour>
    <contour>
      <point x="266" y="23" type="line"/>
      <point x="266" y="6"/>
      <point x="281" y="-9"/>
      <point x="299" y="-9" type="curve" smooth="yes"/>
      <point x="318" y="-9"/>
      <point x="334" y="6"/>
      <point x="334" y="23" type="curve" smooth="yes"/>
      <point x="334" y="41"/>
      <point x="318" y="57"/>
      <point x="299" y="57" type="curve" smooth="yes"/>
      <point x="281" y="57"/>
      <point x="266" y="41"/>
      <point x="266" y="23" type="curve" smooth="yes"/>
    </contour>
  </outline>
</glyph>
<glyph name="five.prop" format="2">
  <advance width="547"/>
  <outline>
    <contour>
      <point x="142" y="508" type="line"/>
      <point x="117" y="250" type="line"/>
      <point x="255" y="250" type="line" smooth="yes"/>
      <point x="371" y="250"/>
      <point x="434" y="190"/>
      <point x="434" y="95" type="curve" smooth="yes"/>
      <point x="434" y="1"/>
      <point x="360" y="-74"/>
      <point x="253" y="-74" type="curve" smooth="yes"/>
      <point x="164" y="-74"/>
      <point x="109" y="-29"/>
      <point x="109" y="56" type="curve"/>
      <point x="73" y="56" type="line"/>
      <point x="73" y="-52"/>
      <point x="156" y="-108"/>
      <point x="253" y="-108" type="curve" smooth="yes"/>
      <point x="383" y="-108"/>
      <point x="474" y="-21"/>
      <point x="474" y="95" type="curve" smooth="yes"/>
      <point x="474" y="214"/>
      <point x="389" y="283"/>
      <point x="252" y="283" type="curve" smooth="yes"/>
      <point x="220" y="283"/>
      <point x="179" y="279"/>
      <point x="147" y="273" type="curve"/>
      <point x="157" y="266" type="line"/>
      <point x="180" y="493" type="line"/>
      <point x="171" y="474" type="line"/>
      <point x="448" y="474" type="line"/>
      <point x="448" y="508" type="line"/>
    </contour>
  </outline>
</glyph>
<glyph name="minus.tf" format="2">
  <advance width="600"/>
  <outline>
    <contour>
      <point x="145" y="296" type="line"/>
      <point x="145" y="265" type="line"/>
      <point x="455" y="265" type="line"/>
      <point x="455" y="296" type="line"/>
    </contour>
  </outline>
</glyph>
<glyph name="nine.prop" format="2">
  <advance width="549"/>
  <outline>
    <contour>
      <point x="270" y="516" type="line"/>
      <point x="403" y="516"/>
      <point x="495" y="401"/>
      <point x="495" y="216" type="curve" smooth="yes"/>
      <point x="495" y="16"/>
      <point x="428" y="-108"/>
      <point x="270" y="-108" type="curve" smooth="yes"/>
      <point x="156" y="-108"/>
      <point x="80" y="-27"/>
      <point x="80" y="80" type="curve"/>
      <point x="119" y="80" type="line"/>
      <point x="119" y="-13"/>
      <point x="173" y="-74"/>
      <point x="270" y="-74" type="curve" smooth="yes"/>
      <point x="397" y="-74"/>
      <point x="454" y="41"/>
      <point x="454" y="228" type="curve" smooth="yes"/>
      <point x="454" y="260"/>
      <point x="453" y="284"/>
      <point x="448" y="320" type="curve"/>
      <point x="440" y="214"/>
      <point x="373" y="149"/>
      <point x="270" y="149" type="curve" smooth="yes"/>
      <point x="166" y="149"/>
      <point x="79" y="227"/>
      <point x="79" y="337" type="curve" smooth="yes"/>
      <point x="79" y="446"/>
      <point x="156" y="516"/>
      <point x="270" y="516" type="curve" smooth="yes"/>
    </contour>
    <contour>
      <point x="270" y="482" type="line"/>
      <point x="181" y="482"/>
      <point x="119" y="428"/>
      <point x="119" y="337" type="curve" smooth="yes"/>
      <point x="119" y="245"/>
      <point x="181" y="190"/>
      <point x="270" y="190" type="curve" smooth="yes"/>
      <point x="358" y="190"/>
      <point x="422" y="256"/>
      <point x="422" y="337" type="curve" smooth="yes"/>
      <point x="422" y="428"/>
      <point x="358" y="482"/>
      <point x="270" y="482" type="curve" smooth="yes"/>
    </contour>
  </outline>
</glyph>
<glyph name="numbersign.tf" format="2">
  <advance width="600"/>
  <outline>
    <contour>
      <point x="149" y="29" type="line"/>
      <point x="183" y="29" type="line"/>
      <point x="241" y="578" type="line"/>
      <point x="207" y="578" type="line"/>
    </contour>
    <contour>
      <point x="355" y="29" type="line"/>
      <point x="390" y="29" type="line"/>
      <point x="448" y="578" type="line"/>
      <point x="414" y="578" type="line"/>
    </contour>
    <contour>
      <point x="80" y="405" type="line"/>
      <point x="540" y="405" type="line"/>
      <point x="544" y="433" type="line"/>
      <point x="83" y="433" type="line"/>
    </contour>
    <contour>
      <point x="57" y="177" type="line"/>
      <point x="516" y="177" type="line"/>
      <point x="520" y="205" type="line"/>
      <point x="60" y="205" type="line"/>
    </contour>
  </outline>
</glyph>
<glyph name="one.prop" format="2">
  <advance width="304"/>
  <outline>
    <contour>
      <point x="158" y="508" type="line"/>
      <point x="131" y="480"/>
      <point x="94" y="464"/>
      <point x="55" y="458" type="curve"/>
      <point x="55" y="419" type="line"/>
      <point x="91" y="422"/>
      <point x="129" y="437"/>
      <point x="158" y="464" type="curve"/>
      <point x="158" y="0" type="line"/>
      <point x="194" y="0" type="line"/>
      <point x="194" y="508" type="line"/>
    </contour>
  </outline>
</glyph>
<glyph name="period.tf" format="2">
  <advance width="600"/>
  <outline>
    <contour>
      <point x="266" y="23" type="curve" smooth="yes"/>
      <point x="266" y="6"/>
      <point x="281" y="-9"/>
      <point x="299" y="-9" type="curve" smooth="yes"/>
      <point x="319" y="-9"/>
      <point x="334" y="6"/>
      <point x="334" y="23" type="curve" smooth="yes"/>
      <point x="334" y="41"/>
      <point x="319" y="57"/>
      <point x="299" y="57" type="curve" smooth="yes"/>
      <point x="281" y="57"/>
      <point x="266" y="41"/>
    </contour>
  </outline>
</glyph>
<glyph name="plus.tf" format="2">
  <advance width="600"/>
  <outline>
    <contour>
      <point x="282" y="491" type="line"/>
      <point x="282" y="261" type="line"/>
      <point x="63" y="261" type="line"/>
      <point x="63" y="231" type="line"/>
      <point x="282" y="231" type="line"/>
      <point x="282" y="0" type="line"/>
      <point x="318" y="0" type="line"/>
      <point x="318" y="231" type="line"/>
      <point x="537" y="231" type="line"/>
      <point x="537" y="261" type="line"/>
      <point x="318" y="261" type="line"/>
      <point x="318" y="491" type="line"/>
    </contour>
  </outline>
</glyph>
<glyph name="question.tf" format="2">
  <advance width="600"/>
  <outline>
    <contour>
      <point x="309" y="616" type="line"/>
      <point x="423" y="616"/>
      <point x="492" y="547"/>
      <point x="492" y="468" type="curve" smooth="yes"/>
      <point x="492" y="400"/>
      <point x="459" y="361"/>
      <point x="380" y="316" type="curve" smooth="yes"/>
      <point x="311" y="277"/>
      <point x="288" y="255"/>
      <point x="288" y="176" type="curve" smooth="yes"/>
      <point x="288" y="125" type="line"/>
      <point x="252" y="125" type="line"/>
      <point x="252" y="176" type="line" smooth="yes"/>
      <point x="252" y="262"/>
      <point x="272" y="296"/>
      <point x="351" y="341" type="curve" smooth="yes"/>
      <point x="422" y="382"/>
      <point x="452" y="407"/>
      <point x="452" y="471" type="curve" smooth="yes"/>
      <point x="452" y="535"/>
      <point x="399" y="582"/>
      <point x="309" y="582" type="curve" smooth="yes"/>
      <point x="215" y="582"/>
      <point x="168" y="548"/>
      <point x="152" y="482" type="curve"/>
      <point x="109" y="482" type="line"/>
      <point x="120" y="560"/>
      <point x="187" y="616"/>
      <point x="309" y="616" type="curve" smooth="yes"/>
    </contour>
    <contour>
      <point x="269" y="57" type="line"/>
      <point x="288" y="57"/>
      <point x="304" y="41"/>
      <point x="304" y="23" type="curve" smooth="yes"/>
      <point x="304" y="6"/>
      <point x="288" y="-9"/>
      <point x="269" y="-9" type="curve" smooth="yes"/>
      <point x="250" y="-9"/>
      <point x="236" y="6"/>
      <point x="236" y="23" type="curve" smooth="yes"/>
      <point x="236" y="41"/>
      <point x="250" y="57"/>
      <point x="269" y="57" type="curve" smooth="yes"/>
    </contour>
  </outline>
</glyph>
<glyph name="seven.prop" format="2">
  <advance width="441"/>
  <outline>
    <contour>
      <point x="24" y="516" type="line"/>
      <point x="24" y="482" type="line"/>
      <point x="379" y="482" type="line"/>
      <point x="74" y="-91" type="line"/>
      <point x="122" y="-91" type="line"/>
      <point x="423" y="486" type="line"/>
      <point x="423" y="516" type="line"/>
    </contour>
  </outline>
</glyph>
<glyph name="slash.tf" format="2">
  <advance width="600"/>
  <outline>
    <contour>
      <point x="159" y="-64" type="line"/>
      <point x="196" y="-64" type="line"/>
      <point x="441" y="717" type="line"/>
      <point x="403" y="717" type="line"/>
    </contour>
  </outline>
</glyph>
<glyph name="three.tf" format="2">
  <advance width="600"/>
  <outline>
    <contour>
      <point x="290" y="616" type="line"/>
      <point x="201" y="616"/>
      <point x="123" y="581"/>
      <point x="105" y="480" type="curve"/>
      <point x="141" y="480" type="line"/>
      <point x="163" y="559"/>
      <point x="220" y="582"/>
      <point x="290" y="582" type="curve" smooth="yes"/>
      <point x="383" y="582"/>
      <point x="439" y="525"/>
      <point x="439" y="454" type="curve" smooth="yes"/>
      <point x="439" y="375"/>
      <point x="366" y="328"/>
      <point x="248" y="328" type="curve" smooth="yes"/>
      <point x="225" y="328" type="line"/>
      <point x="225" y="298" type="line"/>
      <point x="280" y="298" type="line" smooth="yes"/>
      <point x="416" y="298"/>
      <point x="466" y="238"/>
      <point x="466" y="164" type="curve" smooth="yes"/>
      <point x="466" y="85"/>
      <point x="406" y="26"/>
      <point x="302" y="26" type="curve" smooth="yes"/>
      <point x="202" y="26"/>
      <point x="118" y="75"/>
      <point x="118" y="180" type="curve"/>
      <point x="82" y="180" type="line"/>
      <point x="82" y="56"/>
      <point x="186" y="-9"/>
      <point x="302" y="-9" type="curve" smooth="yes"/>
      <point x="432" y="-9"/>
      <point x="506" y="62"/>
      <point x="506" y="164" type="curve" smooth="yes"/>
      <point x="506" y="247"/>
      <point x="447" y="299"/>
      <point x="366" y="318" type="curve"/>
      <point x="438" y="343"/>
      <point x="479" y="389"/>
      <point x="479" y="454" type="curve" smooth="yes"/>
      <point x="479" y="547"/>
      <point x="399" y="616"/>
      <point x="290" y="616" type="curve" smooth="yes"/>
    </contour>
  </outline>
</glyph>
<glyph name="zero.prop" format="2">
  <advance width="491"/>
  <outline>
    <contour>
      <point x="245" y="516" type="line"/>
      <point x="132" y="516"/>
      <point x="55" y="436"/>
      <point x="55" y="254" type="curve" smooth="yes"/>
      <point x="55" y="72"/>
      <point x="132" y="-9"/>
      <point x="245" y="-9" type="curve" smooth="yes"/>
      <point x="358" y="-9"/>
      <point x="436" y="72"/>
      <point x="436" y="254" type="curve" smooth="yes"/>
      <point x="436" y="436"/>
      <point x="358" y="516"/>
      <point x="245" y="516" type="curve" smooth="yes"/>
    </contour>
    <contour>
      <point x="245" y="486" type="line"/>
      <point x="350" y="486"/>
      <point x="396" y="400"/>
      <point x="396" y="254" type="curve" smooth="yes"/>
      <point x="396" y="108"/>
      <point x="350" y="22"/>
      <point x="245" y="22" type="curve" smooth="yes"/>
      <point x="141" y="22"/>
      <point x="95" y="108"/>
      <point x="95" y="254" type="curve" smooth="yes"/>
      <point x="95" y="400"/>
      <point x="141" y="486"/>
      <point x="245" y="486" type="curve" smooth="yes"/>
    </contour>
  </outline>
</glyph>
<glyph name="zero.tf" format="2">
  <advance width="600"/>
  <outline>
    <contour>
      <point x="300" y="616" type="line"/>
      <point x="164" y="616"/>
      <point x="78" y="510"/>
      <point x="78" y="304" type="curve" smooth="yes"/>
      <point x="78" y="97"/>
      <point x="164" y="-9"/>
      <point x="300" y="-9" type="curve" smooth="yes"/>
      <point x="436" y="-9"/>
      <point x="522" y="97"/>
      <point x="522" y="304" type="curve" smooth="yes"/>
      <point x="522" y="510"/>
      <point x="436" y="616"/>
      <point x="300" y="616" type="curve" smooth="yes"/>
    </contour>
    <contour>
      <point x="300" y="582" type="line"/>
      <point x="422" y="582"/>
      <point x="482" y="480"/>
      <point x="482" y="304" type="curve" smooth="yes"/>
      <point x="482" y="128"/>
      <point x="422" y="26"/>
      <point x="300" y="26" type="curve" smooth="yes"/>
      <point x="179" y="26"/>
      <point x="118" y="128"/>
      <point x="118" y="304" type="curve" smooth="yes"/>
      <point x="118" y="480"/>
      <point x="179" y="582"/>
      <point x="300" y="582" type="curve" smooth="yes"/>
    </contour>
  </outline>
</glyph>
